<mxfile host="app.diagrams.net" modified="2020-09-28T03:20:37.554Z" agent="5.0 (Windows NT 10.0; Win64; x64) AppleWebKit/537.36 (KHTML, like Gecko) Chrome/85.0.4183.121 Safari/537.36" etag="705Eg4y8QUqHOJL28pkb" version="13.7.5" type="github">
  <diagram id="C5RBs43oDa-KdzZeNtuy" name="Page-1">
    <mxGraphModel dx="1865" dy="548" grid="1" gridSize="10" guides="1" tooltips="1" connect="1" arrows="1" fold="1" page="1" pageScale="1" pageWidth="827" pageHeight="1169" math="0" shadow="0">
      <root>
        <mxCell id="WIyWlLk6GJQsqaUBKTNV-0" />
        <mxCell id="WIyWlLk6GJQsqaUBKTNV-1" parent="WIyWlLk6GJQsqaUBKTNV-0" />
        <mxCell id="2srvAJ1--IIzCRWmYMWg-20" style="edgeStyle=orthogonalEdgeStyle;rounded=0;orthogonalLoop=1;jettySize=auto;html=1;" edge="1" parent="WIyWlLk6GJQsqaUBKTNV-1" source="2srvAJ1--IIzCRWmYMWg-1" target="2srvAJ1--IIzCRWmYMWg-19">
          <mxGeometry relative="1" as="geometry" />
        </mxCell>
        <mxCell id="2srvAJ1--IIzCRWmYMWg-1" value="Soil Moisture Sensor" style="shape=process;whiteSpace=wrap;html=1;backgroundOutline=1;" vertex="1" parent="WIyWlLk6GJQsqaUBKTNV-1">
          <mxGeometry x="50" y="110" width="120" height="60" as="geometry" />
        </mxCell>
        <mxCell id="2srvAJ1--IIzCRWmYMWg-21" style="edgeStyle=orthogonalEdgeStyle;rounded=0;orthogonalLoop=1;jettySize=auto;html=1;" edge="1" parent="WIyWlLk6GJQsqaUBKTNV-1" source="2srvAJ1--IIzCRWmYMWg-2" target="2srvAJ1--IIzCRWmYMWg-19">
          <mxGeometry relative="1" as="geometry" />
        </mxCell>
        <mxCell id="2srvAJ1--IIzCRWmYMWg-2" value="IR Flame Sensor" style="shape=process;whiteSpace=wrap;html=1;backgroundOutline=1;" vertex="1" parent="WIyWlLk6GJQsqaUBKTNV-1">
          <mxGeometry x="50" y="290" width="120" height="60" as="geometry" />
        </mxCell>
        <mxCell id="2srvAJ1--IIzCRWmYMWg-22" style="edgeStyle=orthogonalEdgeStyle;rounded=0;orthogonalLoop=1;jettySize=auto;html=1;entryX=0.5;entryY=1;entryDx=0;entryDy=0;" edge="1" parent="WIyWlLk6GJQsqaUBKTNV-1" source="2srvAJ1--IIzCRWmYMWg-3" target="2srvAJ1--IIzCRWmYMWg-19">
          <mxGeometry relative="1" as="geometry" />
        </mxCell>
        <mxCell id="2srvAJ1--IIzCRWmYMWg-3" value="Temparature Sensor" style="shape=process;whiteSpace=wrap;html=1;backgroundOutline=1;" vertex="1" parent="WIyWlLk6GJQsqaUBKTNV-1">
          <mxGeometry x="40" y="470" width="120" height="60" as="geometry" />
        </mxCell>
        <mxCell id="2srvAJ1--IIzCRWmYMWg-18" value="" style="endArrow=none;dashed=1;html=1;strokeWidth=3;" edge="1" parent="WIyWlLk6GJQsqaUBKTNV-1">
          <mxGeometry width="50" height="50" relative="1" as="geometry">
            <mxPoint x="230" y="566" as="sourcePoint" />
            <mxPoint x="230" y="74" as="targetPoint" />
          </mxGeometry>
        </mxCell>
        <mxCell id="2srvAJ1--IIzCRWmYMWg-33" style="edgeStyle=orthogonalEdgeStyle;rounded=0;orthogonalLoop=1;jettySize=auto;html=1;exitX=0.75;exitY=0;exitDx=0;exitDy=0;entryX=0;entryY=0.5;entryDx=0;entryDy=0;" edge="1" parent="WIyWlLk6GJQsqaUBKTNV-1" source="2srvAJ1--IIzCRWmYMWg-19" target="2srvAJ1--IIzCRWmYMWg-28">
          <mxGeometry relative="1" as="geometry">
            <Array as="points">
              <mxPoint x="390" y="140" />
              <mxPoint x="510" y="140" />
            </Array>
          </mxGeometry>
        </mxCell>
        <mxCell id="2srvAJ1--IIzCRWmYMWg-36" style="edgeStyle=orthogonalEdgeStyle;rounded=0;orthogonalLoop=1;jettySize=auto;html=1;exitX=0.75;exitY=1;exitDx=0;exitDy=0;entryX=0;entryY=0.5;entryDx=0;entryDy=0;" edge="1" parent="WIyWlLk6GJQsqaUBKTNV-1" source="2srvAJ1--IIzCRWmYMWg-19" target="2srvAJ1--IIzCRWmYMWg-29">
          <mxGeometry relative="1" as="geometry" />
        </mxCell>
        <mxCell id="2srvAJ1--IIzCRWmYMWg-50" style="edgeStyle=orthogonalEdgeStyle;rounded=0;orthogonalLoop=1;jettySize=auto;html=1;entryX=0.071;entryY=0.583;entryDx=0;entryDy=0;entryPerimeter=0;strokeWidth=1;" edge="1" parent="WIyWlLk6GJQsqaUBKTNV-1" source="2srvAJ1--IIzCRWmYMWg-19" target="2srvAJ1--IIzCRWmYMWg-46">
          <mxGeometry relative="1" as="geometry" />
        </mxCell>
        <mxCell id="2srvAJ1--IIzCRWmYMWg-19" value="&lt;font style=&quot;font-size: 14px&quot;&gt;Node MCU&lt;/font&gt;" style="shape=parallelogram;perimeter=parallelogramPerimeter;whiteSpace=wrap;html=1;fixedSize=1;" vertex="1" parent="WIyWlLk6GJQsqaUBKTNV-1">
          <mxGeometry x="300" y="285" width="120" height="70" as="geometry" />
        </mxCell>
        <mxCell id="2srvAJ1--IIzCRWmYMWg-23" value="" style="endArrow=none;dashed=1;html=1;strokeWidth=3;" edge="1" parent="WIyWlLk6GJQsqaUBKTNV-1">
          <mxGeometry width="50" height="50" relative="1" as="geometry">
            <mxPoint x="840" y="550" as="sourcePoint" />
            <mxPoint x="840" y="70" as="targetPoint" />
          </mxGeometry>
        </mxCell>
        <mxCell id="2srvAJ1--IIzCRWmYMWg-51" style="edgeStyle=orthogonalEdgeStyle;rounded=0;orthogonalLoop=1;jettySize=auto;html=1;strokeWidth=1;" edge="1" parent="WIyWlLk6GJQsqaUBKTNV-1" source="2srvAJ1--IIzCRWmYMWg-26" target="2srvAJ1--IIzCRWmYMWg-46">
          <mxGeometry relative="1" as="geometry" />
        </mxCell>
        <mxCell id="2srvAJ1--IIzCRWmYMWg-26" value="&lt;font style=&quot;font-size: 14px&quot;&gt;Buzzer&lt;/font&gt;" style="rounded=0;whiteSpace=wrap;html=1;" vertex="1" parent="WIyWlLk6GJQsqaUBKTNV-1">
          <mxGeometry x="690" y="470" width="120" height="60" as="geometry" />
        </mxCell>
        <mxCell id="2srvAJ1--IIzCRWmYMWg-48" style="edgeStyle=orthogonalEdgeStyle;rounded=0;orthogonalLoop=1;jettySize=auto;html=1;entryX=0;entryY=0.5;entryDx=0;entryDy=0;strokeWidth=1;" edge="1" parent="WIyWlLk6GJQsqaUBKTNV-1" source="2srvAJ1--IIzCRWmYMWg-27" target="2srvAJ1--IIzCRWmYMWg-47">
          <mxGeometry relative="1" as="geometry" />
        </mxCell>
        <mxCell id="2srvAJ1--IIzCRWmYMWg-27" value="&lt;span id=&quot;docs-internal-guid-92de8a7a-7fff-a4c1-e3e9-7c8822872a56&quot;&gt;&lt;span style=&quot;font-size: 14pt ; font-family: &amp;#34;arial&amp;#34; ; color: rgb(89 , 89 , 89) ; background-color: transparent ; vertical-align: baseline&quot;&gt;motorL298D &lt;/span&gt;&lt;/span&gt;" style="rounded=0;whiteSpace=wrap;html=1;" vertex="1" parent="WIyWlLk6GJQsqaUBKTNV-1">
          <mxGeometry x="690" y="110" width="120" height="60" as="geometry" />
        </mxCell>
        <mxCell id="2srvAJ1--IIzCRWmYMWg-34" style="edgeStyle=orthogonalEdgeStyle;rounded=0;orthogonalLoop=1;jettySize=auto;html=1;exitX=1;exitY=0.5;exitDx=0;exitDy=0;entryX=0;entryY=0.5;entryDx=0;entryDy=0;" edge="1" parent="WIyWlLk6GJQsqaUBKTNV-1" source="2srvAJ1--IIzCRWmYMWg-28" target="2srvAJ1--IIzCRWmYMWg-27">
          <mxGeometry relative="1" as="geometry">
            <mxPoint x="710" y="130" as="targetPoint" />
          </mxGeometry>
        </mxCell>
        <mxCell id="2srvAJ1--IIzCRWmYMWg-28" value="Soil Sensor Reading &amp;gt; Threshold" style="rhombus;whiteSpace=wrap;html=1;" vertex="1" parent="WIyWlLk6GJQsqaUBKTNV-1">
          <mxGeometry x="440" y="110" width="170" height="60" as="geometry" />
        </mxCell>
        <mxCell id="2srvAJ1--IIzCRWmYMWg-43" style="edgeStyle=orthogonalEdgeStyle;rounded=0;orthogonalLoop=1;jettySize=auto;html=1;exitX=1;exitY=0.5;exitDx=0;exitDy=0;entryX=0;entryY=0.5;entryDx=0;entryDy=0;strokeWidth=1;" edge="1" parent="WIyWlLk6GJQsqaUBKTNV-1" source="2srvAJ1--IIzCRWmYMWg-29" target="2srvAJ1--IIzCRWmYMWg-26">
          <mxGeometry relative="1" as="geometry" />
        </mxCell>
        <mxCell id="2srvAJ1--IIzCRWmYMWg-29" value="&amp;nbsp;IR Sensor Reading &amp;gt; Threshold" style="rhombus;whiteSpace=wrap;html=1;" vertex="1" parent="WIyWlLk6GJQsqaUBKTNV-1">
          <mxGeometry x="440" y="460" width="170" height="80" as="geometry" />
        </mxCell>
        <mxCell id="2srvAJ1--IIzCRWmYMWg-35" value="&lt;b&gt;Yes&lt;/b&gt;" style="text;html=1;align=center;verticalAlign=middle;resizable=0;points=[];autosize=1;" vertex="1" parent="WIyWlLk6GJQsqaUBKTNV-1">
          <mxGeometry x="620" y="110" width="40" height="20" as="geometry" />
        </mxCell>
        <mxCell id="2srvAJ1--IIzCRWmYMWg-38" value="&lt;font style=&quot;font-size: 24px&quot;&gt;Input&lt;/font&gt;" style="text;html=1;strokeColor=none;fillColor=none;align=center;verticalAlign=middle;whiteSpace=wrap;rounded=0;" vertex="1" parent="WIyWlLk6GJQsqaUBKTNV-1">
          <mxGeometry x="-10" y="70" width="240" height="20" as="geometry" />
        </mxCell>
        <mxCell id="2srvAJ1--IIzCRWmYMWg-39" value="&lt;font style=&quot;font-size: 24px&quot;&gt;&lt;b&gt;Processing&lt;/b&gt;&lt;/font&gt;" style="text;html=1;strokeColor=none;fillColor=none;align=center;verticalAlign=middle;whiteSpace=wrap;rounded=0;" vertex="1" parent="WIyWlLk6GJQsqaUBKTNV-1">
          <mxGeometry x="520" y="70" width="80" height="20" as="geometry" />
        </mxCell>
        <mxCell id="2srvAJ1--IIzCRWmYMWg-45" value="&lt;font style=&quot;font-size: 24px&quot;&gt;Output&lt;/font&gt;" style="text;html=1;strokeColor=none;fillColor=none;align=center;verticalAlign=middle;whiteSpace=wrap;rounded=0;" vertex="1" parent="WIyWlLk6GJQsqaUBKTNV-1">
          <mxGeometry x="950" y="70" width="40" height="20" as="geometry" />
        </mxCell>
        <mxCell id="2srvAJ1--IIzCRWmYMWg-46" value="&lt;font style=&quot;font-size: 14px&quot;&gt;Android Application&lt;/font&gt;" style="shape=process;whiteSpace=wrap;html=1;backgroundOutline=1;" vertex="1" parent="WIyWlLk6GJQsqaUBKTNV-1">
          <mxGeometry x="890" y="285" width="140" height="60" as="geometry" />
        </mxCell>
        <mxCell id="2srvAJ1--IIzCRWmYMWg-47" value="&lt;span id=&quot;docs-internal-guid-36173c9d-7fff-b0ed-e3ec-754023d1abb3&quot;&gt;&lt;span style=&quot;font-family: &amp;#34;arial&amp;#34; ; color: rgb(89 , 89 , 89) ; background-color: transparent ; vertical-align: baseline&quot;&gt;&lt;font style=&quot;font-size: 14px&quot;&gt;Micro submersible motor pump&lt;/font&gt;&lt;/span&gt;&lt;/span&gt;" style="shape=process;whiteSpace=wrap;html=1;backgroundOutline=1;" vertex="1" parent="WIyWlLk6GJQsqaUBKTNV-1">
          <mxGeometry x="880" y="110" width="150" height="60" as="geometry" />
        </mxCell>
        <mxCell id="2srvAJ1--IIzCRWmYMWg-54" value="&lt;b&gt;Yes&lt;/b&gt;" style="text;html=1;align=center;verticalAlign=middle;resizable=0;points=[];autosize=1;" vertex="1" parent="WIyWlLk6GJQsqaUBKTNV-1">
          <mxGeometry x="630" y="460" width="40" height="20" as="geometry" />
        </mxCell>
      </root>
    </mxGraphModel>
  </diagram>
</mxfile>
